<svg width="136" height="40" viewBox="0 0 136 40" fill="none" xmlns="http://www.w3.org/2000/svg">
<g clip-path="url(#clip0_327_911)">
<path d="M130.332 0H5.33203C2.57061 0 0.332031 2.23858 0.332031 5V35C0.332031 37.7614 2.57061 40 5.33203 40H130.332C133.093 40 135.332 37.7614 135.332 35V5C135.332 2.23858 133.093 0 130.332 0Z" fill="white"/>
<path d="M130.332 0.8C132.652 0.8 134.532 2.68 134.532 5V35C134.532 37.32 132.652 39.2 130.332 39.2H5.33203C3.01203 39.2 1.13203 37.32 1.13203 35V5C1.13203 2.68 3.01203 0.8 5.33203 0.8H130.332ZM130.332 0H5.33203C2.58203 0 0.332031 2.25 0.332031 5V35C0.332031 37.75 2.58203 40 5.33203 40H130.332C133.082 40 135.332 37.75 135.332 35V5C135.332 2.25 133.082 0 130.332 0Z" fill="black"/>
<path d="M68.4721 21.75C66.1221 21.75 64.2021 23.54 64.2021 26C64.2021 28.46 66.1221 30.25 68.4721 30.25C70.8221 30.25 72.7421 28.45 72.7421 26C72.7421 23.55 70.8221 21.75 68.4721 21.75ZM68.4721 28.58C67.1821 28.58 66.0721 27.52 66.0721 26C66.0721 24.48 67.1821 23.42 68.4721 23.42C69.7621 23.42 70.8721 24.47 70.8721 26C70.8721 27.53 69.7621 28.58 68.4721 28.58ZM59.1521 21.75C56.8021 21.75 54.8821 23.54 54.8821 26C54.8821 28.46 56.8021 30.25 59.1521 30.25C61.5021 30.25 63.4221 28.45 63.4221 26C63.4221 23.55 61.5021 21.75 59.1521 21.75ZM59.1521 28.58C57.8621 28.58 56.7521 27.52 56.7521 26C56.7521 24.48 57.8621 23.42 59.1521 23.42C60.4421 23.42 61.5521 24.47 61.5521 26C61.5521 27.53 60.4421 28.58 59.1521 28.58ZM48.0721 23.06V24.8601H52.3921C52.2621 25.8801 51.9221 26.62 51.4121 27.13C50.7821 27.76 49.8021 28.4501 48.0821 28.4501C45.4221 28.4501 43.3421 26.31 43.3421 23.65C43.3421 20.99 45.4221 18.85 48.0821 18.85C49.5121 18.85 50.5621 19.41 51.3321 20.14L52.6021 18.8701C51.5221 17.8401 50.0921 17.05 48.0721 17.05C44.4321 17.05 41.3721 20.01 41.3721 23.66C41.3721 27.31 44.4321 30.2701 48.0721 30.2701C50.0421 30.2701 51.5221 29.63 52.6821 28.42C53.8721 27.23 54.2421 25.5501 54.2421 24.2001C54.2421 23.7801 54.2121 23.39 54.1421 23.07H48.0721V23.06ZM93.3821 24.46C93.0321 23.51 91.9521 21.75 89.7421 21.75C87.5321 21.75 85.7321 23.47 85.7321 26C85.7321 28.38 87.5321 30.25 89.9521 30.25C91.9021 30.25 93.0321 29.0601 93.4921 28.3701L92.0421 27.4C91.5621 28.11 90.9021 28.58 89.9521 28.58C89.0021 28.58 88.3221 28.1401 87.8921 27.2901L93.5821 24.9401L93.3921 24.46H93.3821ZM87.5821 25.88C87.5321 24.24 88.8521 23.4 89.8021 23.4C90.5421 23.4 91.1721 23.77 91.3821 24.3L87.5821 25.88ZM82.9621 30H84.8321V17.5H82.9621V30ZM79.9021 22.7001H79.8421C79.4221 22.2001 78.6221 21.75 77.6021 21.75C75.4721 21.75 73.5221 23.62 73.5221 26.0201C73.5221 28.4201 75.4721 30.26 77.6021 30.26C78.6221 30.26 79.4221 29.8101 79.8421 29.2901H79.9021V29.9C79.9021 31.53 79.0321 32.4001 77.6321 32.4001C76.4921 32.4001 75.7821 31.58 75.4921 30.89L73.8621 31.57C74.3321 32.7 75.5721 34.0801 77.6321 34.0801C79.8221 34.0801 81.6721 32.79 81.6721 29.65V22.01H79.9021V22.7001ZM77.7521 28.58C76.4621 28.58 75.3821 27.5001 75.3821 26.0201C75.3821 24.5401 76.4621 23.43 77.7521 23.43C79.0421 23.43 80.0221 24.5301 80.0221 26.0201C80.0221 27.5101 79.0221 28.58 77.7521 28.58ZM102.142 17.5H97.6721V30H99.5421V25.26H102.152C104.222 25.26 106.252 23.76 106.252 21.38C106.252 19 104.222 17.5 102.152 17.5H102.142ZM102.182 23.5201H99.5321V19.23H102.182C103.582 19.23 104.372 20.3901 104.372 21.3701C104.372 22.3501 103.582 23.51 102.182 23.51V23.5201ZM113.722 21.73C112.372 21.73 110.972 22.33 110.392 23.64L112.052 24.33C112.402 23.64 113.062 23.41 113.752 23.41C114.712 23.41 115.702 23.9901 115.712 25.0201V25.15C115.372 24.96 114.652 24.67 113.762 24.67C111.972 24.67 110.162 25.65 110.162 27.48C110.162 29.15 111.622 30.23 113.262 30.23C114.512 30.23 115.212 29.67 115.642 29.01H115.702V29.98H117.502V25.1901C117.502 22.9701 115.842 21.73 113.702 21.73H113.722ZM113.492 28.58C112.882 28.58 112.032 28.2701 112.032 27.5201C112.032 26.5601 113.092 26.1901 114.012 26.1901C114.832 26.1901 115.222 26.3701 115.712 26.6101C115.572 27.7701 114.572 28.59 113.492 28.59V28.58ZM124.072 22L121.932 27.42H121.872L119.652 22H117.642L120.972 29.58L119.072 33.7901H121.022L126.152 22H124.082H124.072ZM107.272 30H109.142V17.5H107.272V30Z" fill="black"/>
<path d="M21.0521 19.42L10.4021 30.72C10.7321 31.95 11.8521 32.85 13.1821 32.85C13.7121 32.85 14.2121 32.71 14.6421 32.45L14.6721 32.43L26.6521 25.52L21.0421 19.41L21.0521 19.42Z" fill="#EA4335"/>
<path d="M31.822 17.5H31.812L26.642 14.49L20.812 19.68L26.662 25.53L31.812 22.56C32.712 22.07 33.322 21.12 33.322 20.03C33.322 18.94 32.722 17.99 31.822 17.51V17.5Z" fill="#FBBC04"/>
<path d="M10.402 9.28003C10.342 9.52003 10.302 9.76003 10.302 10.02V29.99C10.302 30.25 10.332 30.49 10.402 30.73L21.412 19.72L10.402 9.28003Z" fill="#4285F4"/>
<path d="M21.1321 20L26.6421 14.49L14.6721 7.55001C14.2421 7.29001 13.7321 7.14001 13.1821 7.14001C11.8521 7.14001 10.7321 8.05002 10.4021 9.27002L21.1321 19.99V20Z" fill="#34A853"/>
<path d="M41.4707 16.5148C41.2559 16.5148 41.0684 16.5011 40.9082 16.4738C40.7441 16.4503 40.6035 16.4171 40.4863 16.3741V15.1964C40.6113 15.2277 40.7461 15.255 40.8906 15.2784C41.0352 15.3019 41.1895 15.3136 41.3535 15.3136C41.5684 15.3136 41.7637 15.2726 41.9395 15.1906C42.1152 15.1085 42.2539 14.9601 42.3555 14.7452C42.4609 14.5304 42.5137 14.2277 42.5137 13.837V5.5636H43.9199V13.7902C43.9199 14.4269 43.8184 14.9445 43.6152 15.3429C43.4121 15.7452 43.127 16.0402 42.7598 16.2277C42.3926 16.4191 41.9629 16.5148 41.4707 16.5148ZM50.9863 14.13H46.1348V5.5636H50.9863V6.74719H47.541V9.07336H50.7695V10.2511H47.541V12.9406H50.9863V14.13ZM55.8086 14.13H54.3965V6.75891H51.8887V5.5636H58.3105V6.75891H55.8086V14.13ZM65.0312 14.13H58.873V13.1632L63.2324 6.75891H59.0078V5.5636H64.9141V6.52454L60.5547 12.9347H65.0312V14.13ZM69.5078 14.13H68.0957V6.75891H65.5879V5.5636H72.0098V6.75891H69.5078V14.13ZM76.4395 5.5636H78.9883C80.0938 5.5636 80.9277 5.72375 81.4902 6.04407C82.0527 6.36438 82.334 6.91711 82.334 7.70227C82.334 8.0304 82.2754 8.32727 82.1582 8.5929C82.0449 8.85461 81.8789 9.07141 81.6602 9.24329C81.4414 9.41125 81.1719 9.52454 80.8516 9.58313V9.64172C81.1836 9.70032 81.4785 9.80383 81.7363 9.95227C81.998 10.1007 82.2031 10.3136 82.3516 10.5909C82.5039 10.8683 82.5801 11.2277 82.5801 11.6691C82.5801 12.1925 82.4551 12.6378 82.2051 13.005C81.959 13.3722 81.6055 13.6515 81.1445 13.8429C80.6875 14.0343 80.1445 14.13 79.5156 14.13H76.4395V5.5636ZM77.8457 9.0968H79.1934C79.8301 9.0968 80.2715 8.99329 80.5176 8.78625C80.7637 8.57922 80.8867 8.27649 80.8867 7.87805C80.8867 7.4718 80.7402 7.17883 80.4473 6.99915C80.1582 6.81946 79.6973 6.72961 79.0645 6.72961H77.8457V9.0968ZM77.8457 10.2335V12.9523H79.3281C79.9844 12.9523 80.4453 12.8253 80.7109 12.5714C80.9766 12.3175 81.1094 11.9738 81.1094 11.5402C81.1094 11.2745 81.0488 11.0441 80.9277 10.8488C80.8105 10.6534 80.6172 10.5031 80.3477 10.3976C80.0781 10.2882 79.7148 10.2335 79.2578 10.2335H77.8457ZM89.2012 14.13H84.3496V5.5636H89.2012V6.74719H85.7559V9.07336H88.9844V10.2511H85.7559V12.9406H89.2012V14.13ZM91.0527 14.13V5.5636H92.459V14.13H91.0527Z" fill="black"/>
</g>
<defs>
<clipPath id="clip0_327_911">
<rect width="135" height="40" fill="white" transform="translate(0.332031)"/>
</clipPath>
</defs>
</svg>
