<svg width="16" height="16" viewBox="0 0 16 16" fill="none" xmlns="http://www.w3.org/2000/svg">
<path fill-rule="evenodd" clip-rule="evenodd" d="M5 1H6V2.61538H5.11538C3.73467 2.61538 2.61538 3.73467 2.61538 5.11539V10.8846C2.61538 12.2653 3.73467 13.3846 5.11539 13.3846H10.8846C12.2653 13.3846 13.3846 12.2653 13.3846 10.8846V10H15V11C15 13.2091 13.2091 15 11 15H5C2.79086 15 1 13.2091 1 11V5C1 2.79086 2.79086 1 5 1ZM9 1V2.61538H12.3846L8.5 6.5L9.5 7.5L13.3846 3.61539V7H15V2C15 1.44772 14.5523 1 14 1H9Z" fill="#f0f" />
</svg>
