<svg width="16" height="16" viewBox="0 0 16 16" fill="none" xmlns="http://www.w3.org/2000/svg">
<path d="M0.0101318 10.9816C0.0101318 9.08966 0.0101318 7.72666 0.0101318 4.9498C2.24789 6.8519 5.80797 9.81184 6.92685 10.6764C7.88298 11.4088 8.61534 11.3986 9.46976 10.6663C10.3242 9.9339 16 4.98031 16 4.98031C16 4.98031 16 9.08965 16 10.9205C16 12.9244 15.4914 13.5754 13.3553 13.5652C9.83594 13.5347 6.31655 13.5855 2.79716 13.5855C0.579742 13.5855 0.0101318 13.0363 0.0101318 10.9816Z" fill="#3D3D3D"/>
<path d="M2.12587 2C3.44819 2 13.1011 2 14.1894 2C15.2778 2 15.9593 2.93579 15.9593 2.93579C15.9593 2.93579 12.328 6.38397 10.0394 8.23521C9.20534 8.91671 8.63573 9.42529 8.13732 9.42529C7.63891 9.42529 7.15067 8.91671 6.27591 8.23521C3.91608 6.38397 0 2.94596 0 2.94596C0 2.94596 0.803562 2 2.1157 2H2.12587Z" fill="#3D3D3D"/>
</svg>
