<svg width="16" height="16" viewBox="0 0 16 16" fill="none" xmlns="http://www.w3.org/2000/svg">
<path d="M10.7807 16C6.73957 12.8867 4.42561 8.66141 3.16345 3.76902C2.65416 1.77871 3.32953 0.677919 5.26706 0.0997272C6.15278 -0.16713 6.75065 0.0997249 7.11601 0.922536C7.35959 1.45625 7.55887 2.00109 7.76923 2.54592C8.11245 3.41321 7.84673 4.11371 7.01636 4.42504C5.8317 4.88092 5.70992 5.6815 6.20814 6.6711C6.90565 8.0721 7.6253 9.45087 8.42246 10.7963C8.84318 11.5079 9.42998 11.6413 10.205 11.0631C11.6111 10.0068 11.9764 10.1736 13.3272 12.075C14.3126 13.4649 14.2572 13.9318 12.8843 14.9548C12.3861 15.3329 11.8325 15.6331 11.3121 15.9666H10.7807V16Z" fill="#3D3D3D"/>
</svg>
